<?xml version="1.0" encoding="UTF-8"?>
<svg id="_レイヤー_1" data-name="レイヤー_1" xmlns="http://www.w3.org/2000/svg" xmlns:xlink="http://www.w3.org/1999/xlink" version="1.1" viewBox="0 0 1600 400">
  <!-- Generator: Adobe Illustrator 29.3.1, SVG Export Plug-In . SVG Version: 2.1.0 Build 151)  -->
  <defs>
    <style>
      .st0 {
        fill: #007878;
      }

      .st1 {
        fill: url(#_名称未設定グラデーション_196);
      }

      .st2 {
        fill: url(#_名称未設定グラデーション_193);
      }

      .st3 {
        fill: url(#_名称未設定グラデーション_123);
      }
    </style>
    <linearGradient id="_名称未設定グラデーション_123" data-name="名称未設定グラデーション 123" x1="110.7" y1="206.1" x2="368.3" y2="206.1" gradientUnits="userSpaceOnUse">
      <stop offset="0" stop-color="#0064ff"/>
      <stop offset="1" stop-color="#0cf"/>
    </linearGradient>
    <linearGradient id="_名称未設定グラデーション_196" data-name="名称未設定グラデーション 196" x1="53.4" y1="316.5" x2="271.2" y2="98.8" gradientUnits="userSpaceOnUse">
      <stop offset="0" stop-color="#0c9"/>
      <stop offset="1" stop-color="#009678"/>
    </linearGradient>
    <linearGradient id="_名称未設定グラデーション_193" data-name="名称未設定グラデーション 193" x1="111.7" y1="258.3" x2="271.2" y2="98.8" gradientUnits="userSpaceOnUse">
      <stop offset="0" stop-color="#009678"/>
      <stop offset="1" stop-color="#0c9"/>
    </linearGradient>
  </defs>
  <g>
    <path class="st0" d="M648.7,144.9c-1.7,25.2-8.5,46.1-20.4,62.7-11.2,15.7-25.5,25.7-42.7,30v-27.9c6.7-3.1,12.8-7.7,18.4-13.6,6.6-6.8,11.3-14.5,14.3-23h-66.2v68.9c0,7.4,1.4,12.6,4.3,15.6,2.8,3,7.8,4.6,15,4.6h75.2v28.5h-78.1c-15,0-25.6-3.7-32-11.1-5.9-6.9-8.8-18-8.8-33.2v-73.3h-23v-28.3h23v-30.4h24.5v30.4h96.6Z"/>
    <path class="st0" d="M865.8,244c0,16.4-2.9,28.5-8.8,36-5.9,7.6-15.3,11.4-28.2,11.4h-30.6v-28.3h25.2c6.2,0,10.7-1.7,13.3-5,2.6-3.3,3.9-8.8,3.9-16.5v-67h-43.7c-1.5,31-8.6,57.2-21.4,78.4-11.6,19.1-26.4,32.6-44.6,40.4v-30.4c26.6-18.7,40.4-48.2,41.3-88.4h-41.3v-27.6h41.3v-32.3h24.8v32.3h68.9v96.9Z"/>
    <path class="st0" d="M1087.5,116.6c-7.7,28.1-22.2,51.2-43.5,69.3v111.8h-25.5v-94.2c-19.4,10.8-42.1,18.6-68,23.4v-29.1c57.7-13,94.3-40.1,109.9-81.2h27.2Z"/>
    <path class="st0" d="M1309.3,230.4c-29.4-9.9-60.5-19.1-93.5-27.4v92.3h-25.2V114.9h25.2v57.8c39.6,9.6,70.8,18.4,93.5,26.4v31.3ZM1275.5,152.3h-15.6v-31.9h15.6v31.9ZM1297.9,152.3h-15.5v-31.9h15.5v31.9Z"/>
    <path class="st0" d="M1534.3,127.9c0,32-7.6,57.5-22.8,76.5-12.6,15.6-29.3,25.6-50,30-10.3,31-29.9,51-58.8,59.7v-29.1c14.4-6.9,25.1-16.9,32.1-30,7.5-14.2,11.2-32.9,11.2-56.1v-10.6h23.3v12.1c0,8.2-.4,15.9-1.2,23.2,21.7-7.5,34.5-25.2,38.6-52.9h-109.2v-28.5h136.7v5.7Z"/>
  </g>
  <circle class="st3" cx="239.5" cy="206.1" r="128.8"/>
  <polygon class="st1" points="212.9 359.5 65.7 328.8 65.7 101.9 212.9 40.5 212.9 359.5"/>
  <polygon class="st2" points="212.9 359.5 65.7 101.9 212.9 40.5 212.9 359.5"/>
</svg>